<svg width="1440" height="226" xmlns="http://www.w3.org/2000/svg"><g><path d="M-30,-69L-66,12L18,18Z" fill="#823b57" stroke="#823b57" fill-opacity="0.5" stroke-opacity="1"></path><path d="M-30,-69L18,18L18,-75Z" fill="#7d3953" stroke="#7d3953" fill-opacity="0.5" stroke-opacity="1"></path><path d="M18,-75L18,18L148,-17Z" fill="#833c57" stroke="#833c57" fill-opacity="0.5" stroke-opacity="1"></path><path d="M18,-75L148,-17L314,-38Z" fill="#823b57" stroke="#823b57" fill-opacity="0.5" stroke-opacity="1"></path><path d="M18,-75L314,-38L400,-49Z" fill="#823c57" stroke="#823c57" fill-opacity="0.5" stroke-opacity="1"></path><path d="M18,-75L400,-49L643,-89Z" fill="#823c57" stroke="#823c57" fill-opacity="0.5" stroke-opacity="1"></path><path d="M148,-17L18,18L180,81Z" fill="#8e425f" stroke="#8e425f" fill-opacity="0.5" stroke-opacity="1"></path><path d="M148,-17L180,81L280,19Z" fill="#914362" stroke="#914362" fill-opacity="0.5" stroke-opacity="1"></path><path d="M148,-17L280,19L314,-38Z" fill="#8a405d" stroke="#8a405d" fill-opacity="0.5" stroke-opacity="1"></path><path d="M314,-38L280,19L417,90Z" fill="#944564" stroke="#944564" fill-opacity="0.5" stroke-opacity="1"></path><path d="M314,-38L417,90L400,-49Z" fill="#914361" stroke="#914361" fill-opacity="0.5" stroke-opacity="1"></path><path d="M400,-49L417,90L566,-70Z" fill="#914462" stroke="#914462" fill-opacity="0.5" stroke-opacity="1"></path><path d="M400,-49L566,-70L643,-89Z" fill="#883f5b" stroke="#883f5b" fill-opacity="0.5" stroke-opacity="1"></path><path d="M566,-70L417,90L588,76Z" fill="#9b4969" stroke="#9b4969" fill-opacity="0.5" stroke-opacity="1"></path><path d="M566,-70L588,76L643,-89Z" fill="#924462" stroke="#924462" fill-opacity="0.5" stroke-opacity="1"></path><path d="M643,-89L588,76L662,100Z" fill="#9e4a6b" stroke="#9e4a6b" fill-opacity="0.5" stroke-opacity="1"></path><path d="M643,-89L662,100L808,-76Z" fill="#964665" stroke="#964665" fill-opacity="0.5" stroke-opacity="1"></path><path d="M643,-89L808,-76L936,-95Z" fill="#8d415e" stroke="#8d415e" fill-opacity="0.5" stroke-opacity="1"></path><path d="M808,-76L662,100L805,98Z" fill="#a34d6f" stroke="#a34d6f" fill-opacity="0.5" stroke-opacity="1"></path><path d="M808,-76L805,98L947,79Z" fill="#a54e70" stroke="#a54e70" fill-opacity="0.5" stroke-opacity="1"></path><path d="M808,-76L947,79L936,-95Z" fill="#9a4969" stroke="#9a4969" fill-opacity="0.5" stroke-opacity="1"></path><path d="M936,-95L947,79L976,-75Z" fill="#9c496a" stroke="#9c496a" fill-opacity="0.5" stroke-opacity="1"></path><path d="M936,-95L976,-75L1171,-76Z" fill="#944564" stroke="#944564" fill-opacity="0.5" stroke-opacity="1"></path><path d="M976,-75L947,79L1097,58Z" fill="#a74f72" stroke="#a74f72" fill-opacity="0.5" stroke-opacity="1"></path><path d="M976,-75L1097,58L1171,-76Z" fill="#a04c6c" stroke="#a04c6c" fill-opacity="0.5" stroke-opacity="1"></path><path d="M1171,-76L1097,58L1231,-59Z" fill="#a34d6f" stroke="#a34d6f" fill-opacity="0.5" stroke-opacity="1"></path><path d="M1171,-76L1231,-59L1524,-41Z" fill="#a14c6d" stroke="#a14c6d" fill-opacity="0.5" stroke-opacity="1"></path><path d="M1231,-59L1097,58L1272,102Z" fill="#b05478" stroke="#b05478" fill-opacity="0.5" stroke-opacity="1"></path><path d="M1231,-59L1272,102L1392,-25Z" fill="#ad5276" stroke="#ad5276" fill-opacity="0.5" stroke-opacity="1"></path><path d="M1231,-59L1392,-25L1524,-41Z" fill="#a74f72" stroke="#a74f72" fill-opacity="0.5" stroke-opacity="1"></path><path d="M1392,-25L1272,102L1423,34Z" fill="#b5577c" stroke="#b5577c" fill-opacity="0.5" stroke-opacity="1"></path><path d="M1392,-25L1423,34L1524,-41Z" fill="#ae5377" stroke="#ae5377" fill-opacity="0.5" stroke-opacity="1"></path><path d="M1524,-41L1423,34L1531,72Z" fill="#b6577c" stroke="#b6577c" fill-opacity="0.5" stroke-opacity="1"></path><path d="M-66,12L-98,306L-58,210Z" fill="#a54e70" stroke="#a54e70" fill-opacity="0.5" stroke-opacity="1"></path><path d="M-66,12L-58,210L36,147Z" fill="#9c496a" stroke="#9c496a" fill-opacity="0.5" stroke-opacity="1"></path><path d="M-66,12L36,147L18,18Z" fill="#904361" stroke="#904361" fill-opacity="0.5" stroke-opacity="1"></path><path d="M18,18L36,147L180,81Z" fill="#974766" stroke="#974766" fill-opacity="0.5" stroke-opacity="1"></path><path d="M180,81L36,147L206,221Z" fill="#a64e71" stroke="#a64e71" fill-opacity="0.5" stroke-opacity="1"></path><path d="M180,81L206,221L283,144Z" fill="#a85073" stroke="#a85073" fill-opacity="0.5" stroke-opacity="1"></path><path d="M180,81L283,144L280,19Z" fill="#9c4a6a" stroke="#9c4a6a" fill-opacity="0.5" stroke-opacity="1"></path><path d="M280,19L283,144L417,90Z" fill="#9f4b6c" stroke="#9f4b6c" fill-opacity="0.5" stroke-opacity="1"></path><path d="M417,90L283,144L416,205Z" fill="#ac5275" stroke="#ac5275" fill-opacity="0.5" stroke-opacity="1"></path><path d="M417,90L416,205L561,211Z" fill="#b3567a" stroke="#b3567a" fill-opacity="0.5" stroke-opacity="1"></path><path d="M417,90L561,211L588,76Z" fill="#ad5375" stroke="#ad5375" fill-opacity="0.5" stroke-opacity="1"></path><path d="M588,76L561,211L619,144Z" fill="#b25579" stroke="#b25579" fill-opacity="0.5" stroke-opacity="1"></path><path d="M588,76L619,144L662,100Z" fill="#ac5275" stroke="#ac5275" fill-opacity="0.5" stroke-opacity="1"></path><path d="M662,100L619,144L768,209Z" fill="#b6587c" stroke="#b6587c" fill-opacity="0.5" stroke-opacity="1"></path><path d="M662,100L768,209L805,98Z" fill="#b5577c" stroke="#b5577c" fill-opacity="0.5" stroke-opacity="1"></path><path d="M805,98L768,209L940,191Z" fill="#be5c82" stroke="#be5c82" fill-opacity="0.5" stroke-opacity="1"></path><path d="M805,98L940,191L947,79Z" fill="#b8587e" stroke="#b8587e" fill-opacity="0.5" stroke-opacity="1"></path><path d="M947,79L940,191L1017,135Z" fill="#bc5a81" stroke="#bc5a81" fill-opacity="0.5" stroke-opacity="1"></path><path d="M947,79L1017,135L1047,103Z" fill="#b7587d" stroke="#b7587d" fill-opacity="0.5" stroke-opacity="1"></path><path d="M947,79L1047,103L1097,58Z" fill="#b3567a" stroke="#b3567a" fill-opacity="0.5" stroke-opacity="1"></path><path d="M1047,103L1017,135L1128,141Z" fill="#bd5b82" stroke="#bd5b82" fill-opacity="0.5" stroke-opacity="1"></path><path d="M1047,103L1128,141L1097,58Z" fill="#b9597f" stroke="#b9597f" fill-opacity="0.5" stroke-opacity="1"></path><path d="M1097,58L1128,141L1272,102Z" fill="#bb5a80" stroke="#bb5a80" fill-opacity="0.5" stroke-opacity="1"></path><path d="M1272,102L1128,141L1277,196Z" fill="#c66088" stroke="#c66088" fill-opacity="0.5" stroke-opacity="1"></path><path d="M1272,102L1277,196L1412,141Z" fill="#c9618a" stroke="#c9618a" fill-opacity="0.5" stroke-opacity="1"></path><path d="M1272,102L1412,141L1423,34Z" fill="#c05d83" stroke="#c05d83" fill-opacity="0.5" stroke-opacity="1"></path><path d="M1423,34L1412,141L1531,72Z" fill="#c05d84" stroke="#c05d84" fill-opacity="0.5" stroke-opacity="1"></path><path d="M1531,72L1412,141L1471,181Z" fill="#ca628b" stroke="#ca628b" fill-opacity="0.5" stroke-opacity="1"></path><path d="M1531,72L1471,181L1512,301Z" fill="#d56893" stroke="#d56893" fill-opacity="0.5" stroke-opacity="1"></path><path d="M-58,210L-98,306L24,264Z" fill="#b5577c" stroke="#b5577c" fill-opacity="0.5" stroke-opacity="1"></path><path d="M-58,210L24,264L36,147Z" fill="#ad5276" stroke="#ad5276" fill-opacity="0.5" stroke-opacity="1"></path><path d="M36,147L24,264L141,282Z" fill="#b3567a" stroke="#b3567a" fill-opacity="0.5" stroke-opacity="1"></path><path d="M36,147L141,282L206,221Z" fill="#b25579" stroke="#b25579" fill-opacity="0.5" stroke-opacity="1"></path><path d="M206,221L141,282L334,288Z" fill="#be5c82" stroke="#be5c82" fill-opacity="0.5" stroke-opacity="1"></path><path d="M206,221L334,288L283,144Z" fill="#b7587d" stroke="#b7587d" fill-opacity="0.5" stroke-opacity="1"></path><path d="M283,144L334,288L416,205Z" fill="#b8587e" stroke="#b8587e" fill-opacity="0.5" stroke-opacity="1"></path><path d="M416,205L334,288L414,272Z" fill="#c15d85" stroke="#c15d85" fill-opacity="0.5" stroke-opacity="1"></path><path d="M416,205L414,272L561,211Z" fill="#bf5c83" stroke="#bf5c83" fill-opacity="0.5" stroke-opacity="1"></path><path d="M561,211L414,272L552,290Z" fill="#c55f88" stroke="#c55f88" fill-opacity="0.5" stroke-opacity="1"></path><path d="M561,211L552,290L681,313Z" fill="#cb628b" stroke="#cb628b" fill-opacity="0.5" stroke-opacity="1"></path><path d="M561,211L681,313L619,144Z" fill="#c25e85" stroke="#c25e85" fill-opacity="0.5" stroke-opacity="1"></path><path d="M619,144L681,313L768,209Z" fill="#c45f87" stroke="#c45f87" fill-opacity="0.5" stroke-opacity="1"></path><path d="M768,209L681,313L754,347Z" fill="#d26691" stroke="#d26691" fill-opacity="0.5" stroke-opacity="1"></path><path d="M768,209L754,347L918,347Z" fill="#d76994" stroke="#d76994" fill-opacity="0.5" stroke-opacity="1"></path><path d="M768,209L918,347L940,191Z" fill="#cf658e" stroke="#cf658e" fill-opacity="0.5" stroke-opacity="1"></path><path d="M940,191L918,347L984,265Z" fill="#d56792" stroke="#d56792" fill-opacity="0.5" stroke-opacity="1"></path><path d="M940,191L984,265L1017,135Z" fill="#c86189" stroke="#c86189" fill-opacity="0.5" stroke-opacity="1"></path><path d="M1017,135L984,265L1128,141Z" fill="#c76088" stroke="#c76088" fill-opacity="0.5" stroke-opacity="1"></path><path d="M1128,141L984,265L1178,341Z" fill="#d56893" stroke="#d56893" fill-opacity="0.5" stroke-opacity="1"></path><path d="M1128,141L1178,341L1277,196Z" fill="#d46792" stroke="#d46792" fill-opacity="0.5" stroke-opacity="1"></path><path d="M1277,196L1178,341L1294,347Z" fill="#e36f9d" stroke="#e36f9d" fill-opacity="0.5" stroke-opacity="1"></path><path d="M1277,196L1294,347L1375,254Z" fill="#df6d9a" stroke="#df6d9a" fill-opacity="0.5" stroke-opacity="1"></path><path d="M1277,196L1375,254L1412,141Z" fill="#d36791" stroke="#d36791" fill-opacity="0.5" stroke-opacity="1"></path><path d="M1412,141L1375,254L1471,181Z" fill="#d46792" stroke="#d46792" fill-opacity="0.5" stroke-opacity="1"></path><path d="M1471,181L1375,254L1512,301Z" fill="#df6d9a" stroke="#df6d9a" fill-opacity="0.5" stroke-opacity="1"></path><path d="M-98,306L754,347L334,288Z" fill="#cb638b" stroke="#cb638b" fill-opacity="0.5" stroke-opacity="1"></path><path d="M-98,306L334,288L141,282Z" fill="#c15d84" stroke="#c15d84" fill-opacity="0.5" stroke-opacity="1"></path><path d="M-98,306L141,282L24,264Z" fill="#bc5b81" stroke="#bc5b81" fill-opacity="0.5" stroke-opacity="1"></path><path d="M334,288L754,347L552,290Z" fill="#d06590" stroke="#d06590" fill-opacity="0.5" stroke-opacity="1"></path><path d="M334,288L552,290L414,272Z" fill="#c8618a" stroke="#c8618a" fill-opacity="0.5" stroke-opacity="1"></path><path d="M552,290L754,347L681,313Z" fill="#d66893" stroke="#d66893" fill-opacity="0.5" stroke-opacity="1"></path><path d="M918,347L1294,347L1178,341Z" fill="#e472a1" stroke="#e472a1" fill-opacity="0.5" stroke-opacity="1"></path><path d="M918,347L1178,341L984,265Z" fill="#e06e9b" stroke="#e06e9b" fill-opacity="0.5" stroke-opacity="1"></path><path d="M1294,347L1512,301L1375,254Z" fill="#e872a0" stroke="#e872a0" fill-opacity="0.5" stroke-opacity="1"></path></g></svg>